<svg width="296" height="292" viewBox="0 0 296 292" fill="none" xmlns="http://www.w3.org/2000/svg">
<path d="M166.238 47.5054L144.618 0H130.243L108.623 47.5054H166.238Z" fill="#FFB95E"/>
<path d="M118.666 0H55.026L7.45428 47.5054H97.0461L118.666 0Z" fill="#FFB95E"/>
<path d="M105.715 119.816L117.185 102.661C118.157 101.186 119.804 100.295 121.572 100.286H121.888C123.764 100.406 125.434 101.511 126.277 103.189L137.429 125.41L148.581 103.189C149.423 101.511 151.094 100.406 152.97 100.286C154.848 100.185 156.642 101.089 157.673 102.661L169.143 119.816V58.0562H105.714L105.715 119.816Z" fill="#FFB95E"/>
<path d="M267.404 47.5054L219.832 0H156.192L177.811 47.5054H267.404Z" fill="#FFB95E"/>
<path d="M236.692 131.96C220.856 132.084 205.716 138.48 194.597 149.743C183.478 161.004 177.289 176.213 177.385 192.027C177.39 204.98 181.538 217.594 189.227 228.026L236.798 292L284.37 228.026C291.98 217.566 296.053 204.957 295.999 192.027C296.098 176.213 289.908 161.004 278.789 149.743C267.671 138.479 252.531 132.084 236.692 131.96ZM235.583 215.834C228.841 215.764 222.402 213.028 217.677 208.228C212.951 203.426 210.324 196.951 210.369 190.218C210.416 183.486 213.132 177.046 217.925 172.312C222.715 167.575 229.192 164.929 235.934 164.953C242.676 164.974 249.132 167.665 253.892 172.434C258.651 177.201 261.322 183.66 261.325 190.393C261.282 197.172 258.547 203.659 253.722 208.428C248.896 213.198 242.372 215.863 235.583 215.834Z" fill="#FFB95E"/>
<path d="M250.755 190.39C250.755 198.609 243.962 205.275 235.585 205.275C227.206 205.275 220.415 198.609 220.415 190.39C220.415 182.168 227.206 175.504 235.585 175.504C243.962 175.504 250.755 182.168 250.755 190.39Z" fill="#FFB95E"/>
<path d="M166.818 192.024C166.721 173.411 174.024 155.516 187.125 142.276C200.226 129.035 218.056 121.525 236.696 121.4C250.283 121.4 263.564 125.425 274.86 132.961V58.0622H179.716V137.238C179.82 139.646 178.274 141.819 175.964 142.516C175.455 142.592 174.938 142.592 174.43 142.516C172.663 142.507 171.016 141.616 170.044 140.141L153.922 116.125L142.135 139.665C141.229 141.428 139.414 142.538 137.43 142.538C135.445 142.538 133.631 141.428 132.724 139.665L120.938 116.125L104.816 140.193C103.537 142.139 101.132 143.018 98.8952 142.358C96.6441 141.677 95.1126 139.59 95.1433 137.238V58.0622H0V269.197H206.621L180.773 234.308C171.709 222.069 166.817 207.25 166.817 192.027L166.818 192.024Z" fill="#FFB95E"/>
<path d="M274.859 269.197V258.271L266.772 269.197H274.859Z" fill="#FFB95E"/>
</svg>
